# xmcd CD database file
#
# Track frame offsets:
#	150
#	19337
#	35562
#	53244
#	71927
#	91224
#	110185
#	126627
#	143366
#	160267
#	176258
#	190676
#	206172
#
# Disc length: 2885 seconds
#
# Revision: 0
# Processed by: cddbd v1.4PL0 Copyright (c) Steve Scherf et al.
# Submitted via: CDex 1.51
#
DISCID=bf0b430d
DTITLE=Gene Mitchell - Tropical Jazz
DYEAR=2000
DGENRE=Jazz
TTITLE0=By The Beach
TTITLE1=Da Way She Move (Tropical Version)
TTITLE2=Summer's Back
TTITLE3=Tropical Express
TTITLE4=Love In The Early Stages
TTITLE5=Cold Seattle Night
TTITLE6=I'm Right Here
TTITLE7=Sweetest Smile
TTITLE8=Sailing Back Home To You
TTITLE9=Going Back To Georgia
TTITLE10=The Way She Moves (Jazz Version)
TTITLE11=Tribal Revial
TTITLE12=Conga Line
EXTD=YEAR: 2000
EXTT0=
EXTT1=
EXTT2=
EXTT3=
EXTT4=
EXTT5=
EXTT6=
EXTT7=
EXTT8=
EXTT9=
EXTT10=
EXTT11=
EXTT12=
PLAYORDER=
